<svg xmlns="http://www.w3.org/2000/svg"  viewBox="0 0 100 100" width="100px" height="100px"><path d="M84.712,20.522c-0.049-0.02-0.095-0.039-0.138-0.055l-0.227-0.09c-7.271-2.891-15.106-4.363-23.289-4.375 c-1.501-0.069-17.247-0.785-20.518-0.785c-8.086,0-13.996,1.467-21.51,4.36l-0.127,0.048c-3.999,1.537-13.328,5.121-13.879,15.46 c-0.291,5.481,2.098,10.793,6.388,14.209C11.649,49.483,12,50.091,12,50.998V68.5C12,77.047,18.953,84,27.5,84h49 c7.72,0,14-6.387,14-14.238V51.327c0-1.387,0.499-2.697,1.271-3.335c3.831-3.168,5.965-8.063,5.708-13.093 C96.995,25.457,88.724,22.125,84.712,20.522z" opacity=".35"/><path fill="#f2f2f2" d="M82.712,18.522c-0.049-0.02-0.095-0.039-0.138-0.055l-0.227-0.09c-7.271-2.891-15.106-4.363-23.289-4.375 c-1.501-0.069-17.247-0.785-20.518-0.785c-8.086,0-13.996,1.467-21.51,4.36l-0.127,0.048c-3.999,1.537-13.328,5.121-13.879,15.46 c-0.291,5.481,2.098,10.793,6.388,14.209C9.649,47.483,10,48.091,10,48.998V66.5C10,75.047,16.953,82,25.5,82h49 c7.72,0,14-6.387,14-14.238V49.327c0-1.387,0.499-2.697,1.271-3.335c3.831-3.168,5.965-8.063,5.708-13.093 C94.995,23.457,86.724,20.125,82.712,18.522z"/><path fill="#d47f56" d="M79.706,25.937c-0.052-0.021-0.105-0.042-0.159-0.063c-0.05-0.02-0.101-0.04-0.151-0.06 C72.876,23.22,65.891,22,58.874,22L41,21v5.908c-2.882,1.33-5.319,3.072-5.489,6.4c-0.135,2.642,0.996,5.012,2.818,6.52 c2.744,2.27,4.171,5.854,4.171,9.499v18.435c0,3.445,2.686,6.238,6,6.238h26c3.314,0,6-2.793,6-6.238V49.327 c0-3.646,1.428-7.229,4.171-9.499c1.822-1.508,2.953-3.878,2.818-6.52C87.275,29.119,83.473,27.441,79.706,25.937z"/><circle cx="29" cy="39" r="3" fill="#f9b84f"/><path fill="#ffb789" d="M61,40v7h19.71c0.463-2.711,1.737-5.225,3.778-7H61z" opacity=".35"/><path fill="#ffe385" d="M66.989,34.09c-0.214-4.029-4.016-5.643-7.783-7.09c-0.052-0.02-0.105-0.04-0.159-0.061 c-12.9-4.967-25.194-4.967-38.094,0C20.899,26.96,20.846,26.98,20.794,27c-3.767,1.447-7.569,3.061-7.783,7.09 c-0.135,2.541,0.996,4.821,2.818,6.271C18.572,42.544,20,45.992,20,49.498V67c0,3.314,2.686,6,6,6h28c3.314,0,6-2.686,6-6V49.498 c0-3.506,1.428-6.953,4.171-9.136C65.993,38.911,67.124,36.631,66.989,34.09z"/><path fill="#f9b84f" d="M53.5,74h-28c-4.136,0-7.5-3.364-7.5-7.5V48.998c0-3.189-1.348-6.166-3.605-7.963 c-2.271-1.809-3.536-4.621-3.382-7.524c0.275-5.157,5.17-7.038,8.743-8.411l0.141-0.054c13.018-5.834,26.009-5.083,39.189-0.007 l0.149,0.058c3.582,1.376,8.477,3.257,8.752,8.413v0.001c0.154,2.903-1.11,5.716-3.383,7.524C62.348,42.832,61,45.809,61,48.998 V66.5C61,70.636,57.636,74,53.5,74z M39.505,24.191c-6.098,0-12.197,1.215-18.513,3.646l-0.169,0.065 c-3.761,1.445-6.656,2.789-6.814,5.767c-0.104,1.966,0.718,3.795,2.254,5.018C19.273,41.084,21,44.842,21,48.998V66.5 c0,2.481,2.019,4.5,4.5,4.5h28c2.481,0,4.5-2.019,4.5-4.5V48.998c0-4.156,1.727-7.914,4.736-10.311 c1.537-1.223,2.359-3.052,2.255-5.018c-0.158-2.978-3.054-4.321-6.823-5.77L57.99,27.83 C51.688,25.404,45.597,24.191,39.505,24.191z"/><circle cx="25.5" cy="33.5" r="2.5" fill="#f9b84f"/><circle cx="48.5" cy="52.5" r="2.5" fill="#f9b84f"/><circle cx="40.5" cy="60.5" r="3.5" fill="#f9b84f"/><circle cx="31" cy="42" r="4" fill="#f9b84f"/><path fill="#40396e" d="M80.821,23.151l-0.559,1.392l0.557-1.393c-0.002-0.001-0.063-0.025-0.066-0.026L80.5,23.023 c-6.71-2.667-13.982-4.021-21.544-4.021c-0.005,0-0.01,0-0.014,0c-0.7-0.032-17.199-0.785-20.402-0.785 c-7.741,0-13.094,1.477-19.714,4.026l-0.144,0.055C14.834,23.777,8.395,26.25,8.016,33.352c-0.205,3.869,1.481,7.619,4.51,10.031 C14.075,44.615,15,46.715,15,48.998V66.5C15,72.29,19.71,77,25.5,77h49c4.963,0,9-4.145,9-9.238V49.327 c0-2.904,1.152-5.59,3.083-7.188c2.62-2.167,4.079-5.526,3.902-8.985C90.164,26.884,84.542,24.637,80.821,23.151z M84.671,39.828 C82.06,41.989,80.5,45.54,80.5,49.327v18.435c0,3.439-2.691,6.238-6,6.238h-49c-4.136,0-7.5-3.364-7.5-7.5V48.998 c0-3.189-1.348-6.166-3.606-7.963c-2.272-1.808-3.536-4.622-3.382-7.524c0.275-5.157,5.171-7.039,8.739-8.409l0.145-0.056 c6.299-2.425,11.369-3.829,18.644-3.829c3.136,0,20.095,0.773,20.334,0.783c7.255,0,14.158,1.282,20.517,3.81l0.318,0.127 c3.367,1.346,7.556,3.02,7.78,7.37C87.617,35.824,86.564,38.263,84.671,39.828z"/></svg>